<svg width="800" height="800" viewBox="0 0 800 800" fill="none" xmlns="http://www.w3.org/2000/svg">
<rect width="800" height="800" rx="400" fill="#FCD535"/>
<path d="M112.598 482.833H123.062C139.865 482.833 154.244 479.52 166.199 472.896C174.317 468.419 181.144 462.625 186.678 455.514L112.598 482.833Z" fill="white"/>
<path d="M288.03 486.387L346.695 411.826L288.03 443.086L229.4 411.826L288.03 486.387Z" fill="white"/>
<path d="M435.2 447.612L410.519 372.967L382.472 383.31L417.509 482.833H454.507L505.6 337.903L468.6 351.548L436.897 447.612H435.2Z" fill="white"/>
<path d="M564.592 445.77V317.393H561.219L534.622 327.201V456.822L564.592 445.77Z" fill="white"/>
<path d="M628.388 370.143L657.104 411.654L682.491 402.291L623.865 317.393H597.045V433.802L627.015 422.749V370.143H628.388Z" fill="white"/>
<path d="M733 383.665V317.393H703.192V394.657L733 383.665Z" fill="white"/>
<path d="M288.03 314L288.03 433.068L346.66 401.793L288.03 314Z" fill="white"/>
<path d="M123.062 482.833H67M123.062 482.833C139.865 482.833 154.244 479.52 166.199 472.896M123.062 482.833H112.598M67 482.833V317.393H124.193C140.619 317.393 154.728 320.705 166.522 327.329C178.37 333.899 187.472 343.35 193.826 355.683C200.181 368.016 203.359 382.772 203.359 399.951C203.359 417.184 200.154 431.994 193.746 444.381M67 482.833H112.598M193.746 444.381C187.391 456.767 178.209 466.272 166.199 472.896M193.746 444.381C191.686 448.394 189.331 452.105 186.678 455.514M166.199 472.896C174.317 468.419 181.144 462.625 186.678 455.514M392.144 317.393L435.2 447.612M392.144 317.393H359.266M392.144 317.393L410.519 372.967M435.2 447.612H436.897M435.2 447.612L410.519 372.967M436.897 447.612L479.872 317.393M436.897 447.612L468.6 351.548M479.872 317.393H512.831M479.872 317.393L468.6 351.548M512.831 317.393L454.507 482.833M512.831 317.393L505.6 337.903M454.507 482.833H417.509M454.507 482.833L505.6 337.903M417.509 482.833L359.266 317.393M417.509 482.833L382.472 383.31M359.266 317.393L382.472 383.31M564.592 317.393V482.833M564.592 317.393H534.622M564.592 317.393V445.77M564.592 317.393H561.219M564.592 482.833H534.622M564.592 482.833V445.77M534.622 482.833V317.393M534.622 482.833V456.822M534.622 317.393H561.219M534.622 317.393V327.201M733 317.393V482.833M733 317.393H703.192M733 317.393V383.665M733 482.833H706.342M733 482.833V383.665M706.342 482.833L628.388 370.143M706.342 482.833L657.104 411.654M628.388 370.143H627.015M628.388 370.143L657.104 411.654M627.015 370.143V482.833M627.015 370.143V422.749M627.015 482.833H597.045M627.015 482.833V422.749M597.045 482.833V317.393M597.045 482.833V433.802M597.045 317.393H623.865M597.045 317.393V433.802M623.865 317.393L701.738 430.163M623.865 317.393L682.491 402.291M701.738 430.163H703.192M701.738 430.163L682.491 402.291M703.192 430.163V317.393M703.192 430.163V394.657M703.192 317.393V394.657M561.219 317.393L534.622 327.201M534.622 327.201V456.822M112.598 482.833L186.678 455.514M505.6 337.903L468.6 351.548M382.472 383.31L410.519 372.967M564.592 445.77L534.622 456.822M597.045 433.802L627.015 422.749M657.104 411.654L682.491 402.291M733 383.665L703.192 394.657M288.03 314L288.03 433.068M288.03 314L346.66 401.793L288.03 433.068M288.03 314L229.4 401.793L288.03 433.068M288.03 433.068L288.03 377.743M96.9698 456.902H121.608C133.133 456.902 142.746 454.801 150.447 450.601C158.148 446.346 163.937 440.019 167.815 431.617C171.692 423.162 173.631 412.607 173.631 399.951C173.631 387.295 171.692 376.794 167.815 368.446C163.937 360.045 158.202 353.771 150.608 349.624C143.069 345.424 133.698 343.324 122.497 343.324H96.9698V456.902ZM288.03 486.387L346.695 411.826L288.03 443.086L229.4 411.826L288.03 486.387Z" stroke="white" stroke-width="2"/>
<path d="M112.598 482.833H123.062C139.865 482.833 154.244 479.52 166.199 472.896C174.317 468.419 181.144 462.625 186.678 455.514L112.598 482.833Z" fill="black"/>
<path d="M288.03 486.387L346.695 411.826L288.03 443.086L229.4 411.826L288.03 486.387Z" fill="black"/>
<path d="M435.2 447.612L410.519 372.967L382.472 383.31L417.509 482.833H454.507L505.6 337.903L468.6 351.548L436.897 447.612H435.2Z" fill="black"/>
<path d="M564.592 445.77V317.393H561.219L534.622 327.201V456.822L564.592 445.77Z" fill="black"/>
<path d="M628.388 370.143L657.104 411.654L682.491 402.291L623.865 317.393H597.045V433.802L627.015 422.749V370.143H628.388Z" fill="black"/>
<path d="M733 383.665V317.393H703.192V394.657L733 383.665Z" fill="black"/>
<path d="M288.03 314L288.03 433.068L346.66 401.793L288.03 314Z" fill="black"/>
<path d="M123.062 482.833H67M123.062 482.833C139.865 482.833 154.244 479.52 166.199 472.896M123.062 482.833H112.598M67 482.833V317.393H124.193C140.619 317.393 154.728 320.705 166.522 327.329C178.37 333.899 187.472 343.35 193.826 355.683C200.181 368.016 203.359 382.772 203.359 399.951C203.359 417.184 200.154 431.994 193.746 444.381M67 482.833H112.598M193.746 444.381C187.391 456.767 178.209 466.272 166.199 472.896M193.746 444.381C191.686 448.394 189.331 452.105 186.678 455.514M166.199 472.896C174.317 468.419 181.144 462.625 186.678 455.514M392.144 317.393L435.2 447.612M392.144 317.393H359.266M392.144 317.393L410.519 372.967M435.2 447.612H436.897M435.2 447.612L410.519 372.967M436.897 447.612L479.872 317.393M436.897 447.612L468.6 351.548M479.872 317.393H512.831M479.872 317.393L468.6 351.548M512.831 317.393L454.507 482.833M512.831 317.393L505.6 337.903M454.507 482.833H417.509M454.507 482.833L505.6 337.903M417.509 482.833L359.266 317.393M417.509 482.833L382.472 383.31M359.266 317.393L382.472 383.31M564.592 317.393V482.833M564.592 317.393H534.622M564.592 317.393V445.77M564.592 317.393H561.219M564.592 482.833H534.622M564.592 482.833V445.77M534.622 482.833V317.393M534.622 482.833V456.822M534.622 317.393H561.219M534.622 317.393V327.201M733 317.393V482.833M733 317.393H703.192M733 317.393V383.665M733 482.833H706.342M733 482.833V383.665M706.342 482.833L628.388 370.143M706.342 482.833L657.104 411.654M628.388 370.143H627.015M628.388 370.143L657.104 411.654M627.015 370.143V482.833M627.015 370.143V422.749M627.015 482.833H597.045M627.015 482.833V422.749M597.045 482.833V317.393M597.045 482.833V433.802M597.045 317.393H623.865M597.045 317.393V433.802M623.865 317.393L701.738 430.163M623.865 317.393L682.491 402.291M701.738 430.163H703.192M701.738 430.163L682.491 402.291M703.192 430.163V317.393M703.192 430.163V394.657M703.192 317.393V394.657M561.219 317.393L534.622 327.201M534.622 327.201V456.822M112.598 482.833L186.678 455.514M505.6 337.903L468.6 351.548M382.472 383.31L410.519 372.967M564.592 445.77L534.622 456.822M597.045 433.802L627.015 422.749M657.104 411.654L682.491 402.291M733 383.665L703.192 394.657M288.03 314L288.03 433.068M288.03 314L346.66 401.793L288.03 433.068M288.03 314L229.4 401.793L288.03 433.068M288.03 433.068L288.03 377.743M96.9698 456.902H121.608C133.133 456.902 142.746 454.801 150.447 450.601C158.148 446.346 163.937 440.019 167.815 431.617C171.692 423.162 173.631 412.607 173.631 399.951C173.631 387.295 171.692 376.794 167.815 368.446C163.937 360.045 158.202 353.771 150.608 349.624C143.069 345.424 133.698 343.324 122.497 343.324H96.9698V456.902ZM288.03 486.387L346.695 411.826L288.03 443.086L229.4 411.826L288.03 486.387Z" stroke="black" stroke-width="2"/>
</svg>
