<?xml version="1.0" encoding="utf-8"?>
<!-- Generator: Adobe Illustrator 23.0.1, SVG Export Plug-In . SVG Version: 6.00 Build 0)  -->
<svg version="1.1" xmlns="http://www.w3.org/2000/svg" xmlns:xlink="http://www.w3.org/1999/xlink" x="0px" y="0px"
	 viewBox="0 0 512 512" style="enable-background:new 0 0 512 512;" xml:space="preserve">
<style type="text/css">
	.st0{fill:#ffffff;}
</style>
<g id="Layer_1">
</g>
<g id="Layer_2">
	<g>
		<path class="st0" d="M162.04,246.91c48.27,0,84.34-51.05,84.34-96.69c0-22.73-9.02-43.66-25.39-58.96
			c-15.67-14.64-36.6-22.7-58.95-22.7c-22.34,0-43.28,8.06-58.95,22.7c-16.37,15.29-25.39,36.23-25.39,58.96
			C77.7,195.86,113.77,246.91,162.04,246.91z M124.94,114.64c9.72-9.08,22.9-14.08,37.1-14.08s27.38,5,37.1,14.08
			c9.82,9.18,15.23,21.81,15.23,35.58c0,14.93-6.09,31.53-16.28,44.41c-5.99,7.57-18.65,20.28-36.05,20.28
			c-17.4,0-30.06-12.71-36.05-20.28c-10.2-12.88-16.28-29.49-16.28-44.41C109.7,136.45,115.11,123.82,124.94,114.64z"/>
		<path class="st0" d="M349.96,68.56c-22.34,0-43.28,8.06-58.95,22.7c-16.37,15.29-25.39,36.23-25.39,58.96
			c0,45.64,36.07,96.69,84.33,96.69s84.34-51.05,84.34-96.69c0-22.73-9.02-43.66-25.39-58.96
			C393.24,76.62,372.31,68.56,349.96,68.56z M386.02,194.63c-5.99,7.57-18.65,20.28-36.05,20.28c-17.4,0-30.06-12.71-36.05-20.28
			c-10.2-12.88-16.28-29.49-16.28-44.41c0-13.76,5.41-26.4,15.23-35.58c9.72-9.08,22.9-14.08,37.1-14.08s27.38,5,37.1,14.08
			c9.82,9.18,15.23,21.81,15.23,35.58C402.3,165.14,396.21,181.75,386.02,194.63z"/>
		<path class="st0" d="M430.65,255.79c-4.43-2.33-9.1-4.46-13.88-6.33c-4.63-1.81-9.84-1.37-14.1,1.2
			c-16.33,9.86-34.55,15.07-52.7,15.07c-18.16,0-36.38-5.21-52.71-15.07c-4.26-2.57-9.48-3.02-14.11-1.2
			c-4.82,1.89-9.49,4.02-13.86,6.32c-4.66,2.45-9.1,5.15-13.28,8.08c-4.18-2.92-8.62-5.62-13.27-8.07
			c-4.39-2.31-9.06-4.44-13.88-6.33c-4.63-1.82-9.85-1.37-14.11,1.2c-16.33,9.86-34.55,15.07-52.71,15.07
			c-18.15,0-36.37-5.21-52.7-15.07c-4.26-2.57-9.47-3.01-14.1-1.2c-4.78,1.87-9.45,4-13.88,6.33
			c-20.32,10.67-36.39,26.19-45.24,43.71c-8.66,17.13-11.45,37.55-8.53,62.44c3.13,26.73,7.28,49.51,12.68,69.65
			c1.88,6.99,8.21,11.86,15.45,11.86h212.65H456.3c7.24,0,13.58-4.87,15.46-11.86c5.4-20.18,9.54-42.97,12.65-69.64
			c2.93-24.88,0.14-45.31-8.52-62.44C467.03,281.97,450.96,266.44,430.65,255.79z M59.37,358.21c-2.19-18.71-0.51-32.78,5.31-44.28
			c5.87-11.62,17.08-22.21,31.56-29.81c1.27-0.67,2.56-1.31,3.88-1.93c19.41,10.19,40.65,15.55,61.92,15.55
			c21.28,0,42.52-5.35,61.93-15.55c1.32,0.62,2.61,1.27,3.87,1.93c6.54,3.43,12.43,7.48,17.51,12.03c0.77,0.68,1.51,1.38,2.23,2.07
			c5.05,4.9,9.02,10.17,11.82,15.71c1.09,2.16,2.04,4.4,2.84,6.75c3.47,10.18,4.25,22.32,2.47,37.52c-0.17,1.47-0.35,2.91-0.52,4.35
			c-0.04,0.35-0.09,0.7-0.13,1.05c-0.14,1.08-0.27,2.15-0.41,3.22c-0.05,0.42-0.11,0.84-0.16,1.26c-0.14,1.06-0.28,2.11-0.43,3.16
			c-0.05,0.34-0.09,0.68-0.14,1.02c-0.19,1.38-0.39,2.75-0.59,4.11c-0.01,0.07-0.02,0.13-0.03,0.2c-0.19,1.26-0.37,2.51-0.57,3.75
			c-0.06,0.39-0.12,0.78-0.18,1.17c-0.15,0.94-0.29,1.86-0.44,2.79c-0.07,0.42-0.14,0.84-0.2,1.25c-0.16,0.97-0.32,1.93-0.48,2.88
			c-0.05,0.32-0.11,0.64-0.16,0.96c-0.22,1.26-0.44,2.52-0.66,3.76c-0.03,0.19-0.07,0.38-0.1,0.57c-0.19,1.04-0.38,2.07-0.58,3.1
			c-0.07,0.39-0.15,0.78-0.22,1.17c-0.16,0.84-0.32,1.67-0.49,2.5c-0.08,0.4-0.16,0.8-0.24,1.2c-0.18,0.91-0.37,1.81-0.56,2.71
			c-0.06,0.28-0.11,0.55-0.17,0.83c-0.25,1.16-0.49,2.31-0.75,3.45c-0.06,0.27-0.12,0.53-0.18,0.8c-0.15,0.66-0.3,1.31-0.45,1.96
			H68.23C64.63,395.74,61.71,378.2,59.37,358.21z M452.63,358.2c0,0.01,0,0.01,0,0.02c-2.33,19.96-5.24,37.5-8.84,53.22H288.62
			c0.06-0.26,0.11-0.54,0.16-0.8c0.28-1.35,0.56-2.72,0.83-4.1c0.11-0.53,0.21-1.07,0.31-1.6c0.26-1.35,0.52-2.72,0.78-4.1
			c0.07-0.39,0.15-0.78,0.22-1.17c0.32-1.75,0.63-3.51,0.94-5.3c0.07-0.43,0.14-0.86,0.22-1.29c0.24-1.41,0.47-2.84,0.7-4.28
			c0.09-0.55,0.18-1.09,0.26-1.64c0.25-1.61,0.5-3.23,0.75-4.86c0.04-0.26,0.08-0.52,0.12-0.78c0.28-1.89,0.55-3.81,0.82-5.75
			c0.07-0.51,0.14-1.02,0.21-1.54c0.2-1.5,0.4-3.02,0.6-4.55c0.07-0.55,0.14-1.11,0.21-1.66c0.25-2,0.5-4.02,0.74-6.08l0,0
			c2.92-24.89,0.13-45.32-8.53-62.44c-0.6-1.18-1.23-2.36-1.89-3.52c-0.22-0.38-0.45-0.76-0.68-1.14c-0.46-0.77-0.91-1.55-1.4-2.31
			c-0.29-0.45-0.59-0.9-0.88-1.34c-0.45-0.68-0.9-1.36-1.37-2.04c-0.33-0.47-0.67-0.94-1.02-1.41c-0.29-0.4-0.57-0.81-0.87-1.21
			c1.41-0.84,2.85-1.64,4.33-2.42c1.25-0.66,2.54-1.3,3.85-1.92c19.41,10.19,40.65,15.55,61.93,15.55
			c21.27,0,42.52-5.35,61.92-15.55c1.32,0.62,2.61,1.27,3.88,1.93c14.47,7.59,25.68,18.18,31.56,29.81
			C453.15,325.44,454.83,339.5,452.63,358.2z"/>
	</g>
</g>
</svg>
