<?xml version="1.0" encoding="utf-8"?>
<!-- Generator: Adobe Illustrator 23.0.1, SVG Export Plug-In . SVG Version: 6.00 Build 0)  -->
<svg version="1.1" xmlns="http://www.w3.org/2000/svg" xmlns:xlink="http://www.w3.org/1999/xlink" x="0px" y="0px"
	 viewBox="0 0 512 512" style="enable-background:new 0 0 512 512;" xml:space="preserve">
<style type="text/css">
	.st0{fill:#ffffff;}
</style>
<g id="Layer_1">
</g>
<g id="Layer_2">
	<g>
		<path class="st0" d="M80.06,407.71c11.44,7.01,24.59,10.71,38.04,10.71c4.83,0,9.57-0.49,14.22-1.41
			c14.26,39.32,51.98,67.49,96.16,67.49h55.04c44.18,0,81.9-28.17,96.16-67.49c4.65,0.92,9.39,1.41,14.22,1.41
			c13.45,0,26.61-3.7,38.05-10.71c21.81-13.37,34.84-36.62,34.84-62.18c0-22.42-10.02-43.05-27.2-56.81v-77.63
			c0-49.04-19.09-95.13-53.74-129.78c-14.43-14.45-31.05-26.32-49.41-35.28C311.23,33.73,284.16,27.5,256,27.5
			c-22.73,0-44.95,4.13-66.06,12.27c-34.22,13.21-63.44,36.11-84.51,66.25c-21.6,30.92-33.02,67.25-33.02,105.06v77.63
			c-17.18,13.75-27.2,34.39-27.2,56.81C45.22,371.09,58.24,394.34,80.06,407.71z M118.1,386.42c-7.55,0-14.92-2.07-21.33-6
			c-12.25-7.5-19.56-20.55-19.56-34.9c0-14.34,7.31-27.38,19.56-34.89c6.4-3.92,13.78-6,21.33-6c2.76,0,5.48,0.28,8.13,0.82v76.8
			c0,1.12,0.02,2.23,0.06,3.34C123.62,386.13,120.89,386.42,118.1,386.42z M353.77,218.96c-2.35,0.14-4.71,0.21-7.08,0.21
			c-16.68,0-32.97-3.55-47.92-10.36c0.02-0.03,0.04-0.06,0.06-0.09c0.1-0.15,0.2-0.3,0.3-0.46c0.39-0.6,0.77-1.2,1.16-1.81
			c0.18-0.28,0.36-0.55,0.53-0.83c0.11-0.18,0.22-0.36,0.33-0.53c0.12-0.19,0.23-0.38,0.35-0.58c0.31-0.51,0.63-1.03,0.94-1.55
			c0.09-0.15,0.17-0.3,0.26-0.45c0.24-0.41,0.48-0.83,0.72-1.24c0.1-0.17,0.2-0.34,0.29-0.51c0.09-0.17,0.19-0.33,0.28-0.5
			c0.19-0.33,0.37-0.66,0.55-0.99c0.32-0.58,0.64-1.16,0.96-1.74c0.1-0.19,0.2-0.37,0.3-0.56c0.09-0.16,0.17-0.33,0.26-0.49
			c0.01-0.03,0.03-0.05,0.04-0.08c0.29-0.54,0.57-1.09,0.85-1.64c0.2-0.39,0.4-0.79,0.6-1.18c0.27-0.54,0.54-1.08,0.8-1.62
			c0.19-0.4,0.39-0.8,0.58-1.2c0.26-0.55,0.51-1.1,0.77-1.65c0.04-0.08,0.07-0.16,0.11-0.23c0.06-0.12,0.12-0.25,0.17-0.37
			c0.09-0.2,0.17-0.39,0.26-0.59c0.26-0.57,0.51-1.15,0.76-1.73c0.16-0.38,0.33-0.75,0.49-1.13c0.08-0.19,0.16-0.38,0.24-0.57
			c0.07-0.17,0.14-0.34,0.21-0.5c0.13-0.31,0.25-0.61,0.38-0.92c0.12-0.29,0.24-0.58,0.36-0.88c0.22-0.56,0.44-1.12,0.65-1.68
			c0.09-0.23,0.18-0.45,0.26-0.68c0.07-0.17,0.13-0.35,0.2-0.52c0.08-0.23,0.16-0.45,0.25-0.68c0.28-0.75,0.55-1.5,0.81-2.25
			c0.06-0.17,0.12-0.33,0.17-0.5c0.07-0.2,0.14-0.41,0.21-0.62c0.21-0.61,0.42-1.22,0.62-1.84c0.13-0.4,0.26-0.8,0.39-1.2
			c0.07-0.21,0.13-0.41,0.2-0.62c0.04-0.11,0.07-0.23,0.11-0.34c0.08-0.27,0.16-0.54,0.25-0.82c0.13-0.42,0.25-0.83,0.37-1.25
			c0.17-0.59,0.34-1.18,0.51-1.77c0.02-0.09,0.05-0.18,0.08-0.26c0.03-0.1,0.06-0.2,0.09-0.31c0.06-0.23,0.12-0.45,0.18-0.68
			c0.16-0.6,0.32-1.21,0.48-1.82c0.1-0.4,0.21-0.81,0.31-1.21c0.05-0.21,0.11-0.43,0.16-0.64c0.03-0.1,0.05-0.21,0.07-0.31
			c0.08-0.33,0.15-0.66,0.23-0.99c0.09-0.37,0.17-0.73,0.26-1.1c0.13-0.57,0.25-1.13,0.37-1.7c0.06-0.26,0.11-0.53,0.17-0.79
			c0.04-0.19,0.08-0.37,0.12-0.55c0.21-1.03,0.41-2.05,0.6-3.09c0.02-0.13,0.04-0.26,0.07-0.39c0.04-0.23,0.08-0.46,0.12-0.69
			c0.12-0.67,0.23-1.34,0.34-2.01c0.06-0.35,0.11-0.71,0.16-1.06c0.03-0.2,0.06-0.4,0.09-0.61c0.03-0.2,0.06-0.4,0.09-0.6
			c0.04-0.28,0.08-0.56,0.12-0.85c0.05-0.39,0.1-0.78,0.15-1.17c0.08-0.65,0.17-1.3,0.24-1.96c0.01-0.06,0.02-0.13,0.02-0.19
			c0.01-0.11,0.03-0.21,0.04-0.32c0.03-0.23,0.05-0.47,0.07-0.71c0.07-0.65,0.14-1.3,0.2-1.95c0.04-0.4,0.08-0.8,0.11-1.21
			c0.02-0.24,0.05-0.48,0.07-0.72c0.83,0.78,1.66,1.57,2.46,2.38c18.47,18.47,28.64,43.02,28.64,69.13V218.96z M290.89,119.71
			c0.05,0.81,0.09,1.62,0.13,2.44c0.02,0.45,0.05,0.9,0.07,1.34c0.05,1.34,0.07,2.68,0.07,4.03c0,3.49-0.16,6.96-0.47,10.41
			c-0.09,0.96-0.19,1.91-0.3,2.87c-2.29,19.85-9.69,38.78-21.49,54.92c-1.92,2.63-3.95,5.18-6.1,7.65c0,0,0,0,0,0
			c-2.06,2.37-4.21,4.64-6.44,6.82c-21.53,21.05-50.5,32.95-80.84,32.95c-1.36,0-2.71-0.03-4.06-0.08
			c-0.44-0.02-0.87-0.04-1.31-0.06c-0.92-0.04-1.84-0.09-2.75-0.15c-0.51-0.04-1.02-0.08-1.53-0.12c-0.85-0.07-1.69-0.15-2.53-0.24
			c-0.53-0.06-1.05-0.11-1.58-0.18c-0.84-0.1-1.67-0.21-2.51-0.33c-0.34-0.05-0.67-0.09-1.01-0.15v-30.76
			c0-40.14,25.15-76.81,62.59-91.25c11.21-4.32,23.05-6.52,35.18-6.52C268.1,113.32,279.8,115.46,290.89,119.71z M283.52,452.5
			h-55.04c-38.73,0-70.25-31.51-70.25-70.25V274.14c0.59,0.07,1.18,0.12,1.77,0.18c0.64,0.07,1.27,0.14,1.91,0.2
			c0.91,0.08,1.82,0.15,2.73,0.22c0.6,0.04,1.2,0.09,1.8,0.13c1.01,0.06,2.02,0.1,3.03,0.14c0.5,0.02,1.01,0.05,1.51,0.07
			c1.51,0.05,3.03,0.07,4.55,0.07c6.68,0,13.3-0.45,19.84-1.34c2.61-0.35,5.21-0.78,7.79-1.27s5.15-1.05,7.69-1.68
			c24.99-6.16,48.07-18.8,66.85-36.79c21.17,11.21,44.77,17.11,69,17.11c2.36,0,4.72-0.06,7.08-0.17v127.07h-51.74
			c-6.64-19.04-24.76-32.74-46.03-32.74c-26.87,0-48.74,21.86-48.74,48.74s21.86,48.74,48.74,48.74c21.27,0,39.39-13.7,46.03-32.74
			h45.98C337.21,435.01,312.38,452.5,283.52,452.5z M272.74,394.07c0,9.23-7.51,16.74-16.74,16.74s-16.74-7.51-16.74-16.74
			s7.51-16.74,16.74-16.74S272.74,384.84,272.74,394.07z M415.22,380.42c-6.4,3.92-13.78,6-21.33,6c-2.79,0-5.52-0.29-8.19-0.83
			c0.04-1.11,0.06-2.22,0.06-3.34v-76.8c2.65-0.53,5.37-0.82,8.13-0.82c7.55,0,14.92,2.07,21.33,6
			c12.25,7.5,19.56,20.55,19.56,34.89C434.78,359.87,427.47,372.92,415.22,380.42z M131.67,124.35
			c17.4-24.9,41.54-43.82,69.79-54.73C218.88,62.91,237.23,59.5,256,59.5c23.26,0,45.61,5.14,66.41,15.29
			c15.16,7.4,28.88,17.2,40.8,29.14c28.61,28.61,44.37,66.67,44.37,107.16v62.86c-4.49-0.86-9.07-1.3-13.69-1.3
			c-2.74,0-5.45,0.15-8.13,0.45v-39.93v-22.08c0-34.66-13.5-67.25-38-91.75c-10.21-10.23-21.96-18.61-34.91-24.93c0,0,0,0,0,0
			c0,0,0,0,0,0c0,0,0,0,0,0c0,0,0,0,0,0c-17.79-8.68-36.92-13.08-56.85-13.08c-16.08,0-31.79,2.91-46.69,8.66
			c-24.19,9.33-44.85,25.54-59.75,46.87c-15.26,21.84-23.32,47.51-23.32,74.24v43.81v18.2c-2.68-0.3-5.39-0.45-8.13-0.45
			c-4.62,0-9.2,0.45-13.69,1.3v-62.86C104.42,179.86,113.84,149.86,131.67,124.35z"/>
		<path class="st0" d="M209.67,319.82c0.5-0.15,0.99-0.33,1.47-0.53c0.48-0.19,0.96-0.42,1.42-0.66c0.46-0.25,0.91-0.52,1.34-0.81
			c0.44-0.29,0.86-0.6,1.27-0.93c0.4-0.33,0.8-0.69,1.17-1.06s0.72-0.76,1.05-1.16c0.33-0.41,0.65-0.83,0.94-1.27
			c0.28-0.43,0.55-0.88,0.8-1.34c0.24-0.46,0.47-0.94,0.67-1.42c0.2-0.48,0.38-0.98,0.53-1.47c0.15-0.5,0.28-1.01,0.38-1.52
			c0.1-0.51,0.18-1.04,0.23-1.55c0.06-0.53,0.08-1.06,0.08-1.58c0-0.52-0.02-1.05-0.08-1.57c-0.05-0.52-0.13-1.04-0.23-1.55
			c-0.1-0.51-0.23-1.03-0.38-1.52c-0.15-0.5-0.33-1-0.53-1.48c-0.2-0.48-0.43-0.96-0.67-1.41c-0.25-0.46-0.52-0.92-0.8-1.35
			c-0.29-0.44-0.61-0.86-0.94-1.26c-0.33-0.41-0.68-0.8-1.05-1.17s-0.77-0.73-1.17-1.06c-0.4-0.33-0.83-0.64-1.27-0.93
			c-0.43-0.29-0.88-0.56-1.34-0.81c-0.46-0.24-0.94-0.46-1.42-0.66c-0.48-0.2-0.97-0.38-1.47-0.53s-1.01-0.28-1.52-0.39
			c-0.51-0.1-1.03-0.18-1.55-0.23c-1.05-0.11-2.11-0.11-3.15,0c-0.52,0.05-1.04,0.13-1.55,0.23c-0.51,0.11-1.02,0.24-1.52,0.39
			s-1,0.33-1.48,0.53c-0.48,0.2-0.95,0.42-1.41,0.66c-0.46,0.25-0.92,0.52-1.35,0.81s-0.86,0.6-1.26,0.93
			c-0.41,0.33-0.8,0.69-1.17,1.06s-0.73,0.76-1.06,1.17c-0.33,0.4-0.64,0.82-0.93,1.26c-0.29,0.43-0.56,0.89-0.8,1.35
			c-0.25,0.45-0.47,0.93-0.67,1.41c-0.2,0.48-0.38,0.98-0.53,1.48c-0.15,0.49-0.28,1.01-0.38,1.52c-0.11,0.51-0.19,1.03-0.24,1.55
			c-0.05,0.52-0.08,1.05-0.08,1.57c0,0.52,0.03,1.05,0.08,1.58c0.05,0.51,0.13,1.04,0.24,1.55c0.1,0.51,0.23,1.02,0.38,1.52
			c0.15,0.49,0.33,0.99,0.53,1.47c0.2,0.48,0.42,0.96,0.67,1.42c0.24,0.46,0.51,0.91,0.8,1.34c0.29,0.44,0.6,0.86,0.93,1.27
			c0.33,0.4,0.69,0.79,1.06,1.16s0.76,0.73,1.17,1.06c0.4,0.33,0.83,0.64,1.26,0.93s0.89,0.56,1.35,0.81
			c0.46,0.24,0.93,0.47,1.41,0.66c0.48,0.2,0.98,0.38,1.48,0.53c0.5,0.16,1.01,0.29,1.52,0.39c0.51,0.1,1.03,0.18,1.55,0.23
			c0.52,0.06,1.05,0.08,1.57,0.08c0.53,0,1.06-0.02,1.58-0.08c0.51-0.05,1.04-0.13,1.55-0.23
			C208.66,320.11,209.17,319.98,209.67,319.82z"/>
		<path class="st0" d="M291.29,307.65c0.1,0.51,0.23,1.02,0.38,1.52c0.15,0.49,0.33,0.99,0.53,1.47c0.2,0.48,0.43,0.96,0.67,1.42
			c0.24,0.46,0.52,0.91,0.8,1.34c0.29,0.44,0.61,0.86,0.94,1.27c0.33,0.4,0.68,0.79,1.05,1.16s0.77,0.73,1.17,1.06
			c0.4,0.33,0.83,0.64,1.27,0.93c0.43,0.29,0.88,0.56,1.34,0.81c0.46,0.24,0.94,0.47,1.42,0.66c0.48,0.2,0.97,0.38,1.47,0.53
			c0.5,0.16,1.01,0.29,1.52,0.39c0.51,0.1,1.03,0.18,1.55,0.23c0.52,0.06,1.05,0.08,1.58,0.08c0.52,0,1.05-0.02,1.57-0.08
			c0.52-0.05,1.04-0.13,1.55-0.23c0.51-0.1,1.02-0.23,1.52-0.39c0.5-0.15,0.99-0.33,1.48-0.53c0.48-0.19,0.95-0.42,1.41-0.66
			c0.46-0.25,0.91-0.52,1.35-0.81c0.43-0.29,0.86-0.6,1.26-0.93c0.41-0.33,0.8-0.69,1.17-1.06s0.73-0.76,1.06-1.16
			c0.33-0.41,0.64-0.83,0.93-1.27c0.29-0.43,0.56-0.88,0.8-1.34c0.25-0.46,0.47-0.94,0.67-1.42c0.2-0.48,0.38-0.98,0.53-1.47
			c0.15-0.5,0.28-1.01,0.38-1.52c0.11-0.51,0.18-1.04,0.24-1.55c0.05-0.53,0.07-1.06,0.07-1.58c0-0.52-0.02-1.05-0.07-1.57
			c-0.06-0.52-0.13-1.04-0.24-1.55c-0.1-0.51-0.23-1.03-0.38-1.52c-0.15-0.5-0.33-1-0.53-1.48c-0.2-0.48-0.42-0.96-0.67-1.41
			c-0.24-0.46-0.51-0.92-0.8-1.35c-0.29-0.44-0.6-0.86-0.93-1.26c-0.33-0.41-0.69-0.8-1.06-1.17s-0.76-0.73-1.17-1.06
			c-0.4-0.33-0.83-0.64-1.26-0.93c-0.44-0.29-0.89-0.56-1.35-0.81c-0.46-0.24-0.93-0.46-1.41-0.66c-0.49-0.2-0.98-0.38-1.48-0.53
			s-1.01-0.28-1.52-0.39c-0.51-0.1-1.03-0.18-1.55-0.23c-1.04-0.11-2.1-0.11-3.15,0c-0.52,0.05-1.04,0.13-1.55,0.23
			c-0.51,0.11-1.02,0.24-1.52,0.39s-0.99,0.33-1.47,0.53c-0.48,0.2-0.96,0.42-1.42,0.66c-0.46,0.25-0.91,0.52-1.34,0.81
			c-0.44,0.29-0.87,0.6-1.27,0.93c-0.4,0.33-0.8,0.69-1.17,1.06s-0.72,0.76-1.05,1.17c-0.33,0.4-0.65,0.82-0.94,1.26
			c-0.28,0.43-0.56,0.89-0.8,1.35c-0.24,0.45-0.47,0.93-0.67,1.41c-0.2,0.48-0.38,0.98-0.53,1.48c-0.15,0.49-0.28,1.01-0.38,1.52
			c-0.1,0.51-0.18,1.03-0.23,1.55c-0.06,0.52-0.08,1.05-0.08,1.57c0,0.52,0.02,1.05,0.08,1.58
			C291.11,306.61,291.19,307.14,291.29,307.65z"/>
	</g>
</g>
</svg>
