<?xml version="1.0" encoding="utf-8"?>
<!-- Generator: Adobe Illustrator 23.0.1, SVG Export Plug-In . SVG Version: 6.00 Build 0)  -->
<svg version="1.1" xmlns="http://www.w3.org/2000/svg" xmlns:xlink="http://www.w3.org/1999/xlink" x="0px" y="0px"
	 viewBox="0 0 512 512" style="enable-background:new 0 0 512 512;" xml:space="preserve">
<style type="text/css">
	.st0{fill:#ffffff;}
</style>
<g id="Layer_1">
</g>
<g id="Layer_2">
	<g>
		<path class="st0" d="M292.25,319.04c3.88,2.32,8.23,3.47,12.56,3.47c5.06,0,10.11-1.57,14.39-4.68
			c7.94-5.77,11.67-15.68,9.48-25.26l-9.38-41.16l31.78-27.78c7.39-6.46,10.21-16.67,7.17-26s-11.31-15.94-21.09-16.83l-42.04-3.8
			l-16.6-38.81c0,0,0,0,0,0c-3.86-9.03-12.7-14.86-22.52-14.86s-18.66,5.83-22.52,14.86L216.88,177l-42.04,3.8
			c-9.78,0.88-18.06,7.49-21.09,16.83s-0.22,19.54,7.17,26l31.78,27.79l-9.38,41.16c-2.18,9.57,1.54,19.49,9.48,25.26
			c7.94,5.77,18.52,6.25,26.95,1.21L256,297.41L292.25,319.04z M218.42,282.57l6.48-28.42c2-8.79-0.97-17.94-7.76-23.88
			l-21.94-19.18l29.03-2.62c8.98-0.81,16.76-6.47,20.31-14.76l11.46-26.8l11.47,26.8c3.55,8.29,11.33,13.94,20.31,14.76l29.03,2.62
			l-21.94,19.18c-6.79,5.94-9.76,15.08-7.76,23.88l6.48,28.42l-25.03-14.94c-7.74-4.62-17.36-4.62-25.11,0L218.42,282.57z"/>
		<path class="st0" d="M248.13,482.43c2.44,1.38,5.16,2.07,7.87,2.07s5.43-0.69,7.87-2.07l143.1-80.86
			c5.02-2.84,8.13-8.16,8.13-13.93V43.5c0-8.84-7.16-16-16-16H112.9c-8.84,0-16,7.16-16,16v344.14c0,5.77,3.11,11.09,8.13,13.93
			L248.13,482.43z M128.9,59.5H383.1v318.81L256,450.12l-127.1-71.82V59.5z"/>
	</g>
</g>
</svg>
